# xmcd
#
# Track frame offsets: 
#        150
#        34045
#        68528
#        88258
#        116274
#        166658
#        205413
#
# Disc length: 2951 seconds
#
# Revision: 0
# Processed by: cddbd v1.4PL0 Copyright (c) Steve Scherf et al.
# Submitted via: ExactAudioCopy v0.90b4
#
DISCID=510b8507
DTITLE=John Mayall and The Bluesbreakers - Live In Warshaw
DYEAR=1997
DGENRE=Blues
TTITLE0=It Ain't Safe
TTITLE1=All Those Heroes
TTITLE2=Dead City
TTITLE3=When The Devil Starts Crying
TTITLE4=Blues For The Lost Days
TTITLE5=Room To Move
TTITLE6=Ain't No Breakman
EXTD=
EXTT0=
EXTT1=
EXTT2=
EXTT3=
EXTT4=
EXTT5=
EXTT6=
PLAYORDER=
